<!-- App logo will be here -->
<?xml version="1.0" standalone="no"?>
<!DOCTYPE svg PUBLIC "-//W3C//DTD SVG 20010904//EN"
 "http://www.w3.org/TR/2001/REC-SVG-20010904/DTD/svg10.dtd">
<svg version="1.0" xmlns="http://www.w3.org/2000/svg"
 width="1016.000000pt" height="984.000000pt" viewBox="0 0 1016.000000 984.000000"
 preserveAspectRatio="xMidYMid meet">

<g transform="translate(0.000000,984.000000) scale(0.100000,-0.100000)"
fill="#000000" stroke="none">
<path d="M4960 9640 c-794 -40 -1618 -321 -2305 -788 -483 -328 -921 -769
-1251 -1262 -457 -681 -739 -1494 -804 -2314 -13 -165 -13 -562 0 -736 97
-1295 712 -2501 1693 -3318 704 -586 1551 -945 2467 -1044 159 -17 779 -17
935 0 294 33 515 76 786 153 743 210 1438 619 1992 1173 640 641 1088 1464
1286 2362 72 329 101 580 108 949 10 511 -46 925 -192 1435 -135 470 -325 885
-600 1306 -464 712 -1153 1308 -1917 1661 -716 329 -1406 462 -2198 423z
m1212 -205 c152 -33 278 -67 428 -116 153 -50 369 -134 395 -153 17 -12 20
-34 27 -222 9 -240 18 -317 40 -359 14 -27 109 -317 187 -570 79 -254 123
-598 89 -696 -6 -19 -31 -64 -54 -102 -48 -73 -77 -92 -133 -83 -41 6 -88 -12
-121 -49 -40 -44 -79 -58 -179 -66 -118 -9 -132 -19 -192 -135 -66 -128 -121
-164 -202 -130 -47 19 -84 68 -102 134 -35 124 -40 137 -57 140 -9 2 -24 -8
-33 -22 -16 -23 -16 -39 -6 -153 31 -361 47 -1367 23 -1436 -37 -104 -106
-127 -172 -58 -50 52 -77 154 -90 337 -19 264 -41 539 -50 629 -6 50 -14 149
-20 220 -10 124 -23 244 -55 510 -8 66 -22 203 -30 305 -8 102 -20 202 -25
222 -13 45 -42 65 -60 43 -13 -15 -10 -178 7 -375 l6 -75 -34 26 c-43 33 -73
85 -101 174 -19 60 -22 91 -21 215 2 237 65 488 208 824 23 56 48 126 55 156
7 30 20 82 31 115 24 81 47 200 59 315 5 52 18 174 30 270 11 96 20 178 20
182 0 11 7 11 132 -17z m-1818 -17 c3 -18 19 -167 36 -330 26 -258 36 -321 75
-474 24 -97 58 -204 74 -239 77 -160 165 -439 205 -654 21 -108 21 -298 1
-376 -21 -81 -63 -161 -100 -192 l-30 -26 -3 34 c-1 19 1 113 6 209 4 96 6
181 4 188 -6 18 -49 15 -57 -5 -14 -38 -26 -125 -40 -288 -8 -93 -24 -249 -35
-345 -21 -176 -53 -527 -70 -760 -5 -69 -14 -165 -20 -215 -5 -49 -15 -168
-20 -263 -9 -137 -16 -190 -36 -253 -32 -100 -71 -149 -121 -149 -50 0 -72 16
-96 68 -18 40 -22 70 -25 207 -3 122 33 1316 41 1344 1 4 -2 21 -6 39 -5 25
-11 32 -31 32 -27 0 -30 -5 -51 -98 -20 -86 -55 -145 -99 -166 -87 -41 -162 2
-221 129 -41 90 -80 124 -143 127 -129 4 -152 11 -225 70 -61 49 -63 50 -116
44 -52 -6 -55 -6 -90 32 -20 21 -51 65 -68 99 -32 58 -33 66 -33 172 0 161 43
419 94 565 8 23 24 77 36 121 26 93 82 258 136 400 21 55 39 120 40 145 2 35
20 431 23 512 1 18 8 22 161 85 227 93 509 180 765 236 11 3 23 5 27 6 4 0 9
-14 12 -31z m4646 -2803 c58 -13 122 -31 142 -39 60 -26 175 -31 228 -11 25 9
52 19 61 22 13 4 22 -11 42 -64 128 -340 211 -703 264 -1143 25 -206 25 -742
0 -960 -99 -871 -395 -1639 -896 -2320 -189 -258 -515 -608 -731 -786 -123
-102 -371 -282 -475 -346 -49 -30 -107 -66 -127 -80 -47 -32 -372 -198 -388
-198 -9 0 -11 50 -7 202 5 226 -4 188 115 543 77 230 126 391 146 483 30 136
56 337 56 438 0 120 -15 172 -76 265 -52 79 -111 115 -176 106 -33 -4 -44 0
-81 30 -62 53 -120 75 -214 82 -45 4 -87 11 -92 16 -5 6 -26 42 -45 81 -60
121 -122 168 -221 168 -45 0 -72 -7 -103 -24 -23 -13 -44 -22 -46 -19 -2 2 0
128 5 279 5 151 12 430 15 620 7 384 3 417 -57 500 -76 105 -225 91 -304 -28
-44 -68 -74 -223 -95 -502 -11 -140 -24 -304 -30 -365 -6 -60 -17 -191 -25
-290 -15 -177 -52 -519 -60 -562 -3 -13 -22 -29 -49 -43 -51 -24 -116 -90
-145 -149 -68 -133 -80 -368 -32 -604 30 -143 124 -436 182 -563 17 -38 41
-103 54 -144 73 -237 78 -262 95 -440 5 -63 19 -185 29 -270 15 -119 17 -158
8 -166 -15 -14 -107 -29 -307 -51 -215 -23 -648 -23 -865 1 -168 18 -313 40
-321 49 -7 7 32 389 51 497 24 138 82 345 119 428 58 131 134 342 160 447 62
250 61 241 60 430 -1 168 -3 185 -27 254 -46 128 -89 181 -185 230 -23 12 -42
26 -42 31 0 6 -9 90 -19 188 -11 97 -25 236 -31 307 -6 72 -18 200 -26 285
-26 276 -44 504 -44 570 0 65 -24 202 -54 302 -43 149 -166 224 -278 170 -57
-28 -93 -85 -114 -180 -19 -84 -17 -331 7 -965 6 -175 9 -321 6 -324 -3 -3
-21 5 -39 18 -28 21 -45 24 -114 24 -81 0 -82 0 -130 -41 -34 -29 -60 -64 -85
-115 -21 -41 -43 -80 -50 -86 -8 -6 -50 -13 -95 -16 -88 -5 -155 -32 -217 -87
-29 -25 -43 -30 -86 -30 -63 0 -98 -17 -143 -69 -90 -106 -115 -204 -99 -397
17 -197 48 -354 109 -554 11 -36 32 -103 46 -150 14 -47 50 -156 80 -242 30
-86 62 -193 70 -238 15 -79 23 -320 10 -320 -13 0 -231 114 -336 177 -259 153
-481 313 -723 522 -87 75 -365 363 -456 471 -301 361 -545 756 -723 1174 -52
121 -63 156 -48 156 19 0 154 81 246 148 96 69 277 211 411 322 122 102 233
175 305 201 59 21 82 24 250 24 216 1 285 12 530 86 233 71 275 86 365 136 44
25 113 60 153 79 76 34 169 96 245 162 24 21 69 51 100 66 31 16 90 60 133 97
70 63 110 87 221 134 54 22 93 65 135 144 30 58 39 66 103 100 97 51 129 76
186 148 62 79 107 103 193 103 73 0 126 -23 236 -103 77 -57 110 -64 214 -47
111 17 198 49 286 104 87 54 121 58 201 22 30 -12 118 -44 197 -71 l143 -47
202 5 c189 4 215 8 397 46 107 23 231 48 275 57 369 69 480 100 569 156 105
66 207 151 244 201 39 55 82 136 82 156 0 20 31 74 59 105 14 15 82 72 151
126 196 153 295 252 364 364 62 100 86 124 173 171 28 15 89 62 135 104 104
96 149 130 185 141 40 13 162 3 283 -25z"/>
</g>
</svg>